<svg height="40" viewBox="0 0 99 40" width="99" xmlns="http://www.w3.org/2000/svg"><g fill="none"><rect fill="#ed5353" height="40" rx="20" width="99"/><path d="m20.864 31.528v-9.824h8.768v9.824h4.832v-22.208h-4.832v8.32h-8.768v-8.32h-4.864v22.208zm30.7034353.32c6.528 0 10.08-2.368 10.08-11.424s-3.552-11.424-10.08-11.424c-6.432 0-10.08 2.368-10.08 11.424s3.648 11.424 10.08 11.424zm0-4.064c-4.064 0-4.96-1.888-4.96-7.36 0-5.408.896-7.456 4.96-7.456 4.096 0 4.992 2.048 4.992 7.456 0 5.472-.896 7.36-4.992 7.36zm24.7194354 3.744v-17.952h5.824v-4.256h-16.48v4.256h5.824v17.952z" fill="#fff"/></g></svg>